<svg width="25" height="25" viewBox="0 0 25 25" fill="none" xmlns="http://www.w3.org/2000/svg">
<path d="M3.75 6.25C3.75 5.58696 4.01339 4.95107 4.48223 4.48223C4.95107 4.01339 5.58696 3.75 6.25 3.75H7.5V8.125C7.5 8.62228 7.69754 9.09919 8.04917 9.45083C8.40081 9.80246 8.87772 10 9.375 10H14.375C14.8723 10 15.3492 9.80246 15.7008 9.45083C16.0525 9.09919 16.25 8.62228 16.25 8.125V3.75H16.7237C17.3867 3.75014 18.0225 4.01363 18.4913 4.4825L20.5175 6.50875C20.9864 6.97748 21.2499 7.61326 21.25 8.27625V12C20.2827 11.5053 19.2115 11.2482 18.125 11.25C16.6537 11.25 15.29 11.7125 14.1712 12.5H8.125C7.62772 12.5 7.15081 12.6975 6.79917 13.0492C6.44754 13.4008 6.25 13.8777 6.25 14.375V21.25C5.58696 21.25 4.95107 20.9866 4.48223 20.5178C4.01339 20.0489 3.75 19.413 3.75 18.75V6.25ZM11.25 18.125C11.25 16.4625 11.84 14.9375 12.8212 13.75H8.125C7.95924 13.75 7.80027 13.8158 7.68306 13.9331C7.56585 14.0503 7.5 14.2092 7.5 14.375V21.25H12C11.5053 20.2827 11.2482 19.2115 11.25 18.125ZM15 3.75H8.75V8.125C8.75 8.29076 8.81585 8.44973 8.93306 8.56694C9.05027 8.68415 9.20924 8.75 9.375 8.75H14.375C14.5408 8.75 14.6997 8.68415 14.8169 8.56694C14.9342 8.44973 15 8.29076 15 8.125V3.75ZM12.5 18.125C12.5 19.6168 13.0926 21.0476 14.1475 22.1025C15.2024 23.1574 16.6332 23.75 18.125 23.75C19.6168 23.75 21.0476 23.1574 22.1025 22.1025C23.1574 21.0476 23.75 19.6168 23.75 18.125C23.75 16.6332 23.1574 15.2024 22.1025 14.1475C21.0476 13.0926 19.6168 12.5 18.125 12.5C16.6332 12.5 15.2024 13.0926 14.1475 14.1475C13.0926 15.2024 12.5 16.6332 12.5 18.125ZM20.625 14.375C20.7908 14.375 20.9497 14.4408 21.0669 14.5581C21.1842 14.6753 21.25 14.8342 21.25 15V16.875C21.25 17.0408 21.1842 17.1997 21.0669 17.3169C20.9497 17.4342 20.7908 17.5 20.625 17.5H18.75C18.5842 17.5 18.4253 17.4342 18.3081 17.3169C18.1908 17.1997 18.125 17.0408 18.125 16.875C18.125 16.7092 18.1908 16.5503 18.3081 16.4331C18.4253 16.3158 18.5842 16.25 18.75 16.25H19.335C18.8602 15.987 18.3128 15.8858 17.7753 15.9615C17.2379 16.0373 16.7398 16.286 16.3562 16.67C16.2375 16.7791 16.0812 16.8381 15.9199 16.8347C15.7587 16.8312 15.605 16.7656 15.4911 16.6515C15.3771 16.5373 15.3117 16.3836 15.3084 16.2223C15.3052 16.0611 15.3644 15.9048 15.4737 15.7862C16.0575 15.2028 16.8174 14.8281 17.6357 14.7203C18.454 14.6125 19.285 14.7776 20 15.19V15C20 14.8342 20.0658 14.6753 20.1831 14.5581C20.3003 14.4408 20.4592 14.375 20.625 14.375ZM19.53 21.29C19.0017 21.5034 18.4318 21.5937 17.8634 21.5538C17.2951 21.5139 16.7433 21.3451 16.25 21.06V21.25C16.25 21.4158 16.1842 21.5747 16.0669 21.6919C15.9497 21.8092 15.7908 21.875 15.625 21.875C15.4592 21.875 15.3003 21.8092 15.1831 21.6919C15.0658 21.5747 15 21.4158 15 21.25V19.375C15 19.2092 15.0658 19.0503 15.1831 18.9331C15.3003 18.8158 15.4592 18.75 15.625 18.75H17.5C17.6658 18.75 17.8247 18.8158 17.9419 18.9331C18.0592 19.0503 18.125 19.2092 18.125 19.375C18.125 19.5408 18.0592 19.6997 17.9419 19.8169C17.8247 19.9342 17.6658 20 17.5 20H16.915C17.3898 20.263 17.9372 20.3642 18.4747 20.2885C19.0121 20.2127 19.5102 19.964 19.8937 19.58C20.0125 19.4709 20.1688 19.4119 20.3301 19.4153C20.4913 19.4188 20.645 19.4844 20.7589 19.5985C20.8729 19.7127 20.9383 19.8664 20.9416 20.0277C20.9448 20.1889 20.8856 20.3452 20.7763 20.4638C20.4213 20.82 19.9963 21.1025 19.53 21.29Z" fill="white"/>
</svg>
